<svg id="Layer_1" data-name="Layer 1" xmlns="http://www.w3.org/2000/svg" viewBox="0 0 1592.16 768.75"><defs><style>.cls-1{font-size:237.08px;stroke:#fff;stroke-miterlimit:10;stroke-width:4.35px;font-family:NotoMonoForPowerline, Noto Mono for Powerline;letter-spacing:-0.09em;}.cls-1,.cls-13{fill:#fff;}.cls-2{letter-spacing:-0.09em;}.cls-3{letter-spacing:-0.07em;}.cls-4{letter-spacing:-0.13em;}.cls-5{letter-spacing:-0.08em;}.cls-6{letter-spacing:-0.08em;}.cls-7{letter-spacing:-0.09em;}.cls-8{letter-spacing:-0.08em;}.cls-9{letter-spacing:-0.09em;}.cls-10{letter-spacing:-0.1em;}.cls-11{letter-spacing:-0.09em;}.cls-12{letter-spacing:-0.02em;}</style></defs><title>BioStatistics</title><text class="cls-1" transform="translate(2.17 205.34)">B<tspan class="cls-2" x="120.93" y="0">i</tspan><tspan class="cls-3" x="242.55" y="0">o</tspan><tspan class="cls-4" x="367.26" y="0">S</tspan><tspan class="cls-5" x="478.66" y="0">t</tspan><tspan class="cls-6" x="601.87" y="0">a</tspan><tspan class="cls-7" x="724.56" y="0">t</tspan><tspan class="cls-8" x="844.88" y="0">is</tspan><tspan class="cls-9" x="1091.53" y="0">t</tspan><tspan class="cls-10" x="1211.85" y="0">i</tspan><tspan class="cls-11" x="1330.22" y="0">c</tspan><tspan class="cls-12" x="1451.47" y="0">s</tspan></text><path class="cls-13" d="M636.9,406.1l-47.46-72.55V406.1H572V310.41H592.7l43.13,67.9v-67.9h17.4V406.1Z"/><path class="cls-13" d="M738.73,373.79A34,34,0,1,1,704.54,339a33.44,33.44,0,0,1,34.21,32.66C738.77,372.37,738.76,373.08,738.73,373.79Zm-15.9,0a18.44,18.44,0,1,0-36.59,0,18.45,18.45,0,1,0,36.59,0Z"/><path class="cls-13" d="M793.75,356.81h-5.54a17.54,17.54,0,0,0-17.54,17.54v33.2h-14.5V340.86h14.5v11.39A20.2,20.2,0,0,1,790,340.86h4.25Z"/><path class="cls-13" d="M815.27,406.4c1,8.3,8.5,14.47,17.2,14.1,12.82,0,19.39-6.3,19.39-19.65V394s-11.18,10.07-18.79,9.6a31.95,31.95,0,0,1,0-63.89c7.75-.76,15.26,3,20.24,9.6v-8.49h14.5v60c1.72,17-11.23,32.09-28.94,33.74a32.52,32.52,0,0,1-6.24,0c-15.56.9-29.44-9.34-32.53-24Zm37.15-34.71a17,17,0,1,0-16.8,18.6,16.65,16.65,0,0,0,16.91-16.38A18.34,18.34,0,0,0,852.42,371.69Z"/><path class="cls-13" d="M946.15,388.45a30,30,0,0,1-30,20.7,34.94,34.94,0,0,1-1.5-69.59,30,30,0,0,1,32.09,34.05,19.45,19.45,0,0,1,0,4.94h-48a17.54,17.54,0,0,0,17.85,17.1,15.88,15.88,0,0,0,16.49-11.4Zm-15-21.49a15,15,0,0,0-15-15c-.36,0-.72,0-1.08,0a15,15,0,0,0-16.05,15h32.09Z"/><path class="cls-13" d="M971.2,385a12.13,12.13,0,0,0,13,11.28l.39,0c6.45,0,9.75-3.6,9.75-7.65s-2.4-6.15-7.65-7.2l-9.75-2.25a19.64,19.64,0,0,1-17.55-19,22.65,22.65,0,0,1,24-21.15,23.09,23.09,0,0,1,25.34,18.3l-13.2,3.75a11.08,11.08,0,0,0-12.14-9.75,8.54,8.54,0,0,0-9.45,7.5c0,3.45,2.7,6,6.75,6.9l9.9,1.94a20.54,20.54,0,0,1,18.89,19.95,22.35,22.35,0,0,1-23.51,21.12q-.69,0-1.38-.12a24.6,24.6,0,0,1-27-19.8Z"/><path class="cls-13" d="M1060.64,406.55V340.86h14.49v8.34a22.6,22.6,0,0,1,19.48-10.13,21,21,0,0,1,19.93,11.47A23,23,0,0,1,1136,339.07a22.51,22.51,0,0,1,23.36,21.61,21.7,21.7,0,0,1-.11,3.12v42.3h-14.5V366.89a12.37,12.37,0,0,0-10.86-13.43,11.68,11.68,0,0,0-2-.06A13.65,13.65,0,0,0,1118.11,367a1.68,1.68,0,0,0,.52,1.41v39.16h-16V367.06a12,12,0,0,0-10.31-13.43,11.65,11.65,0,0,0-2.36-.07,13.31,13.31,0,0,0-13.53,13.09,15.18,15.18,0,0,0,.1,1.91V407.3Z"/><path class="cls-13" d="M1187.77,307.65a10.2,10.2,0,1,1-10.2,10.2A10.2,10.2,0,0,1,1187.77,307.65ZM1181,406.1V340.86h14.5V406.1Z"/><path class="cls-13" d="M1217.22,406.1V309h16V406.1Z"/><path class="cls-13" d="M1254.07,340.86h15.34v72.29a19.28,19.28,0,0,1-17.61,20.91,20.68,20.68,0,0,1-2.23.09,27.22,27.22,0,0,1-9.15-1.2V420.6h4.85c5.92,0,8.2-3,8.2-8.46Zm8.09-33.36a10.2,10.2,0,0,1,10.2,10.34,10.33,10.33,0,0,1-10,10.06,10.51,10.51,0,0,1-1-21l.77,0Z"/><path class="cls-13" d="M1337.89,343.35l7-8.7,8.25,6.9-6.9,8.7a35.66,35.66,0,0,1,8.25,23.54,33.44,33.44,0,0,1-32.06,34.78c-.66,0-1.32,0-2,0a32.93,32.93,0,0,1-17-4.2l-6.75,8.4-8.55-6.9,6.75-8.4a35.11,35.11,0,0,1-8.4-23.7A33.29,33.29,0,0,1,1318.36,339c.71,0,1.42,0,2.14,0A34.64,34.64,0,0,1,1337.89,343.35Zm-33.14,41.84,24-30a17.41,17.41,0,0,0-8.25-1.95A18.6,18.6,0,0,0,1302.08,372q0,1,.12,1.92a24.12,24.12,0,0,0,2.55,11.25Zm34-11.4a24.71,24.71,0,0,0-2.39-11.09l-23.85,30a17.63,17.63,0,0,0,8,1.8,18.6,18.6,0,0,0,18.41-18.78,15.47,15.47,0,0,0-.12-1.92Z"/><path class="cls-13" d="M1366.55,374.21v-14.5h37.7v14.5Z"/><path class="cls-13" d="M1513.67,373.79a34,34,0,1,1-34.2-34.79,33.45,33.45,0,0,1,34.22,32.66C1513.7,372.37,1513.7,373.08,1513.67,373.79Zm-15.9,0a18.44,18.44,0,1,0-36.59,0,18.45,18.45,0,1,0,36.59,0Z"/><path class="cls-13" d="M1537.29,406.4c1,8.27,8.52,14.39,17.2,14.1,12.83,0,19.39-6.3,19.39-19.65V394s-10.45,10.07-18.07,9.6a31.95,31.95,0,0,1,0-63.89,20.66,20.66,0,0,1,19.52,9.6v-8.49h14.5v60c1.72,17-11.23,32.09-28.94,33.74a32.52,32.52,0,0,1-6.24,0c-15.56.9-29.43-9.34-32.52-24Zm37.87-34.71a16.95,16.95,0,1,0-16.8,18.6,16.67,16.67,0,0,0,16.8-18.6Z"/><path class="cls-13" d="M499,585.88V488.74h13v40.13c6.18-6.62,14-10.35,22.12-9.9a30,30,0,0,1,30.29,29.7,29.42,29.42,0,0,1-.3,4.5,31.33,31.33,0,0,1-27.7,34.6,30.85,30.85,0,0,1-3.19.19c-8.11.41-19.77-10.35-19.77-10.35v8.27Zm32.31-53a18.15,18.15,0,0,0-17.84,18.46c0,.64.06,1.29.14,1.94A18.45,18.45,0,0,0,529.46,574a15.75,15.75,0,0,0,1.82.14c10.2,0,17.7-7.79,17.7-20.84S541.63,532.92,531.28,532.92Z"/><path class="cls-13" d="M588.75,487.29a10.2,10.2,0,0,1,10.35,10.19,10.33,10.33,0,0,1-9.9,10.2,10.18,10.18,0,0,1-10.49-10v-.15a10,10,0,0,1,9.89-10.2Zm-7.14,98.44V520.64h14.5v65.69Z"/><path class="cls-13" d="M681.26,553.47a34,34,0,1,1-34.2-34.8,33.45,33.45,0,0,1,34.22,32.66C681.29,552,681.29,552.76,681.26,553.47Zm-15.75,0a18.59,18.59,0,1,0,0,5.77A18.45,18.45,0,0,0,665.51,553.47Z"/><path class="cls-13" d="M729.2,585.88H714.3l-26.51-65.24h17.13l17.28,46.62L739,520.64h16.38Z"/><path class="cls-13" d="M772.23,487.53a10.22,10.22,0,1,1-6.49,9.69v-.12A10.07,10.07,0,0,1,772.23,487.53Zm-3.59,98.2V520.64h14.5v65.69Z"/><path class="cls-13" d="M824.46,520.64h13.77v14.5H825.18v30c0,5.7,2.44,8.1,7.89,8.1a29.64,29.64,0,0,0,5.16,0V585.5a23.23,23.23,0,0,1-9.52,1.48,18,18,0,0,1-19.47-16.38,19.37,19.37,0,0,1,0-3V535.14h-11.6v-14.5H801a9.11,9.11,0,0,0,9.72-8.55,9.3,9.3,0,0,0,0-1.75v-10h14.5Z"/><path class="cls-13" d="M913.12,568.23a30,30,0,0,1-30,20.7,34.94,34.94,0,0,1-1.5-69.74,30.74,30.74,0,0,1,32.25,29.16,30.34,30.34,0,0,1-.16,5,20.49,20.49,0,0,1,0,5h-48a17.54,17.54,0,0,0,17.85,17.09,15.9,15.9,0,0,0,16.5-11.4Zm-15-21.49a15,15,0,0,0-15-15c-.36,0-.72,0-1.08,0a15,15,0,0,0-16.05,15h32.1Z"/><path class="cls-13" d="M945.06,585.88H931V520.64h14.5v8.64A22.13,22.13,0,0,1,965,518.7a23.42,23.42,0,0,1,24.16,22.63,22.59,22.59,0,0,1-.15,3.29v41.26H973.07V547c0-8.1-3.68-15-13.78-15a13.78,13.78,0,0,0-13.84,13.73c0,.42,0,.85.07,1.27Z"/><path class="cls-13" d="M1016.91,564.87A12.15,12.15,0,0,0,1030,576l.26,0c6.45,0,9.75-3.45,9.75-7.49s-2.4-6.15-7.65-7.2l-9.75-2.25a19.66,19.66,0,0,1-17.55-19,22.8,22.8,0,0,1,24.15-21.3,23.25,23.25,0,0,1,25.34,18.45l-13.19,3.75a11.4,11.4,0,0,0-12.15-9.9,8.54,8.54,0,0,0-9.44,7.56v.09a7,7,0,0,0,6.6,6.75l9.9,2.1a20.54,20.54,0,0,1,18.89,19.95,22.34,22.34,0,0,1-23.53,21.09c-.4,0-.81,0-1.21-.1a24.74,24.74,0,0,1-27.15-19.79Z"/><path class="cls-13" d="M1106.81,549.07l27.67,38.26H1114l-18.56-27.11-7.83,8.49v18.62h-14.5V488.74h14.5v58.67L1113,520.64h20.57Z"/><path class="cls-13" d="M1160.15,549.09l17.39-2c3.9,0,5-2.4,5-4.8,0-5.55-3.75-9.9-12.44-9.9a12.75,12.75,0,0,0-13.5,11.85L1142.3,541a25.66,25.66,0,0,1,27.6-21.45c20.24,0,27.89,11.55,27.89,24.6v32.54a55.91,55.91,0,0,0,.9,10.65h-15a33.83,33.83,0,0,1-.75-8.4,23.08,23.08,0,0,1-20.24,10.35,20.54,20.54,0,0,1-22.14-18.82c0-.32,0-.65-.06-1A20.09,20.09,0,0,1,1160.15,549.09Zm21.69,10.08v-3l-17.09,2.55c-5,.9-8.85,3.6-8.85,9a8.7,8.7,0,0,0,8.95,8.44c.21,0,.43,0,.65,0a15,15,0,0,0,16.41-13.43A15.26,15.26,0,0,0,1181.84,559.17Z"/><path class="cls-13" d="M1218.09,612V520.64h14.5v9a24.65,24.65,0,0,1,21.28-10.35,30,30,0,0,1,30.29,29.7,29.41,29.41,0,0,1-.29,4.5,31.35,31.35,0,0,1-28,34.34c-.91.09-1.81.14-2.72.15-7.71.44-19.08-9-19.08-9v33ZM1251,533.22a18.15,18.15,0,0,0-17.66,18.62,14.89,14.89,0,0,0,.12,1.63,17.79,17.79,0,1,0,19.64-20.11A18.51,18.51,0,0,0,1251,533.22Z"/><path class="cls-13" d="M1359,568.23a30,30,0,0,1-30,20.7,34.95,34.95,0,0,1-1.65-69.74,30,30,0,0,1,32.1,34.2,20.49,20.49,0,0,1,0,5h-48a17.53,17.53,0,0,0,18,17.09h0A15.89,15.89,0,0,0,1346,564Zm-15-21.94a15,15,0,0,0-15.41-14.57l-.49,0a15,15,0,0,0-16,15h0Z"/><path class="cls-13" d="M1376.12,585.88V488.74h14.5v97.14Z"/><path class="cls-13" d="M1421,486.88a10.2,10.2,0,1,1-10.2,10.2A10.2,10.2,0,0,1,1421,486.88Zm-7.13,98.85V520.64h14.5v65.69Z"/><path class="cls-13" d="M1458.42,586.18c1,8.31,8.5,14.47,17.2,14.1,12.82,0,19.39-6.3,19.39-19.65v-6.77s-11.25,10.07-18.87,9.6a31.95,31.95,0,0,1,0-63.89c7.76-.79,15.29,2.94,20.32,9.6v-8.53H1511v60c1.71,17.07-11.32,32.24-29.11,33.88a34.18,34.18,0,0,1-6.07,0c-15.56.89-29.43-9.34-32.52-24Zm37.07-34.66a16.82,16.82,0,1,0,.08,2.51A16.16,16.16,0,0,0,1495.49,551.52Z"/><path class="cls-13" d="M1589.23,568.23a30,30,0,0,1-30,20.7,34.95,34.95,0,0,1-1.65-69.74,30,30,0,0,1,32.1,34.2,21.56,21.56,0,0,1,0,5h-48a17.55,17.55,0,0,0,18,17.09h0A15.74,15.74,0,0,0,1576,564Zm-15-21.49a15,15,0,0,0-15-15c-.42,0-.84,0-1.25,0a15,15,0,0,0-16,15h32.25Z"/><path class="cls-13" d="M962.62,767.6a24.34,24.34,0,0,1-25.14-23.5,25.47,25.47,0,0,1,.07-2.62V700.42h16V739c0,8.1,3.85,15,13.54,15a13.06,13.06,0,0,0,14-15V700.42h14.5v53.3a99.09,99.09,0,0,0,0,11.94H980.44a45,45,0,0,1,0-7.16A21.5,21.5,0,0,1,962.62,767.6Z"/><path class="cls-13" d="M1033.85,765.66h-15.11V700.42h14.5v8.66a22.12,22.12,0,0,1,19.49-10.6,23.3,23.3,0,0,1,24.16,22.37,25,25,0,0,1-.15,3.46v41.35h-14.5V726.55c0-8.06-3.62-14.93-13.44-14.93a13.81,13.81,0,0,0-13.8,13.83c0,.37,0,.73.06,1.1Z"/><path class="cls-13" d="M1104.05,666.85a10.06,10.06,0,0,1,10.2,9.9v.3a10.2,10.2,0,0,1-20.4,0h0a10.2,10.2,0,0,1,10.2-10.2Zm-7,98.66V700.42h14.49V766Z"/><path class="cls-13" d="M1167,765.66h-14.93l-26.57-65.24h17.32L1160,747l17-46.58h16.27Z"/><path class="cls-13" d="M1261.67,747.87a30,30,0,0,1-30,20.84A34.95,34.95,0,0,1,1230,699a30,30,0,0,1,32.09,34,20.72,20.72,0,0,1,0,5.1h-48a17.7,17.7,0,0,0,18,17.09,15.9,15.9,0,0,0,16.5-11.54Zm-15-21.35a15,15,0,0,0-15-15c-.42,0-.84,0-1.25,0a15.9,15.9,0,0,0-16,15Z"/><path class="cls-13" d="M1316.25,716.37h-4.93c-11.74,0-17.1,7.08-17.1,19.42v31.32h-14.5V700.42h14.5V712a18.86,18.86,0,0,1,18.26-11.76,17.23,17.23,0,0,1,4.06,0Z"/><path class="cls-13" d="M1339.51,744.69a12.46,12.46,0,0,0,13.35,11.1c6.6,0,9.9-3.45,9.9-7.5s-2.4-6.3-7.65-7.35l-9.75-2.1a19.94,19.94,0,0,1-17.69-19.2,22.78,22.78,0,0,1,24.14-21.14,23.26,23.26,0,0,1,25.35,18.29l-13.2,3.9a11.26,11.26,0,0,0-12.15-9.9,8.56,8.56,0,0,0-9.45,7.5,7,7,0,0,0,6.6,6.9l10,2.1a20.7,20.7,0,0,1,19.2,20,22.35,22.35,0,0,1-23.52,21.11c-.46,0-.92-.06-1.38-.11a24.6,24.6,0,0,1-27-19.8Z"/><path class="cls-13" d="M1402.76,667.07a10.2,10.2,0,0,1,10.34,10v.15a10,10,0,0,1-10,10.05h-.3a9.9,9.9,0,0,1-10-9.75v-.3a10,10,0,0,1,9.89-10.2Zm-8.5,98.44V700.42h14.49V766Z"/><path class="cls-13" d="M1452.25,700.42h13v14.5h-13v30c0,5.85,2.44,8.25,7.89,8.25a24.72,24.72,0,0,0,5.16,0v12.9a22.94,22.94,0,0,1-9.52,1.5,18,18,0,0,1-19.48-16.51,18.29,18.29,0,0,1,0-3.14v-33h-11.6v-14.5H1428c4.94.47,9.3-3.5,9.74-8.88a11,11,0,0,0,0-2v-9.43H1453Z"/><path class="cls-13" d="M1540,747.87a30,30,0,0,1-30,20.84,34.95,34.95,0,0,1-1.65-69.74,30,30,0,0,1,32.09,34,20.72,20.72,0,0,1,0,5.1h-48a17.7,17.7,0,0,0,18,17.09,15,15,0,0,0,16.35-11.54Zm-15-21.35a15,15,0,0,0-15-15c-.37,0-.73,0-1.09,0a15,15,0,0,0-16,15H1525Z"/><path class="cls-13" d="M1576.94,700.42h13v14.5h-13v31.52c0,6.14,2.43,8.67,7.88,8.67a24.72,24.72,0,0,0,5.16,0v10.95a22.5,22.5,0,0,1-9.36,1.5A18.19,18.19,0,0,1,1561,750.89a18.53,18.53,0,0,1,0-3v-33h-11.6v-14.5h3.33c5,.47,9.31-3.5,9.74-8.88a10.18,10.18,0,0,0,0-2v-9.43h14.5Z"/></svg>