<svg id="Layer_1" data-name="Layer 1" xmlns="http://www.w3.org/2000/svg" viewBox="0 0 202.68 83.62"><defs><style>.cls-1{fill:#009a81;}.cls-2{fill:none;}</style></defs><title>logo-nb</title><polygon class="cls-1" points="23.18 63.71 18.49 56.28 16.37 56.28 16.37 67.25 18.34 67.25 18.34 59.71 23.09 67.25 25.15 67.25 25.15 56.28 23.18 56.28 23.18 63.71"/><polygon class="cls-1" points="46.08 54.94 46.08 43.97 43.52 43.97 40.63 51.79 37.75 43.97 35.06 43.97 35.06 54.94 36.99 54.94 36.99 47.02 39.82 54.79 41.29 54.79 44.14 47.11 44.14 54.94 46.08 54.94"/><path class="cls-1" d="M78.28,16.28V23c0,1.56-.71,2.63-2.3,2.63S73.67,24.57,73.67,23V16.28h-2V23c0,2.62,1.47,4.41,4.3,4.41s4.3-1.79,4.3-4.41V16.28Z"/><path class="cls-1" d="M61.61,31.36A2.85,2.85,0,0,0,60.34,29a4.62,4.62,0,0,0-2.54-.6H53.44v11H57.8a4.59,4.59,0,0,0,2.93-.74,3,3,0,0,0,1.11-2.47,2.68,2.68,0,0,0-1.57-2.47A2.51,2.51,0,0,0,61.61,31.36Zm-6.19-1.27h2.46c.9,0,1.71.34,1.71,1.39s-.76,1.36-1.66,1.36H55.42Zm2.46,7.47H55.42V34.51h2.52c1.06,0,1.88.42,1.88,1.6S58.81,37.56,57.88,37.56Z"/><path class="cls-1" d="M72.36,49.11H58V44.25H56.08v4.86H51.19V51h4.89V65.39H31.93V67.3H57a1,1,0,0,0,1-1V51H73.31a1,1,0,0,0,1-1V32.25H72.36Z"/><path class="cls-1" d="M39.62,39.4h1.91V34.56h4.8V32.65h-4.8V18.29H65.47V16.37H40.57a1,1,0,0,0-1,1V32.65H24.3a1,1,0,0,0-1,1v17.9h1.92V34.56H39.62Z"/><path d="M101,39,97.85,34.2V39H96.77V32.65h1.38L101,37.18V32.65h1.09V39Z"/><path d="M107.84,36.84a2.28,2.28,0,1,1-2.28-2.32A2.23,2.23,0,0,1,107.84,36.84Zm-1,0a1.23,1.23,0,1,0-2.45,0,1.24,1.24,0,1,0,2.45,0Z"/><path d="M111.5,35.69a2,2,0,0,0-.34,0c-.81,0-1.18.47-1.18,1.29V39h-1V34.65h1v.7a1.34,1.34,0,0,1,1.27-.75,1.28,1.28,0,0,1,.28,0Z"/><path d="M116.13,34.65l1,3,.88-3h1.06L117.7,39h-1l-1.09-3.15L114.5,39h-1.07L112,34.65h1.11l.89,3,1-3Z"/><path d="M123.75,37.79a2,2,0,0,1-2,1.38,2.33,2.33,0,0,1-.11-4.65,2.05,2.05,0,0,1,2.15,2.27,1.43,1.43,0,0,1,0,.34h-3.21a1.18,1.18,0,0,0,1.2,1.14,1.06,1.06,0,0,0,1.1-.76Zm-1-1.43a1,1,0,0,0-1.08-1,1,1,0,0,0-1.07,1Z"/><path d="M125.54,39a1.07,1.07,0,0,0,1.1.94c.83,0,1.24-.42,1.24-1.31V38.2a1.41,1.41,0,0,1-1.27.64,2.14,2.14,0,0,1,0-4.27,1.36,1.36,0,0,1,1.3.64v-.56h1v4a2.07,2.07,0,0,1-2.25,2.26,2,2,0,0,1-2.09-1.6Zm2.37-2.32a1.14,1.14,0,1,0-2.27,0,1.14,1.14,0,1,0,2.27,0Z"/><path d="M130.8,32.43a.68.68,0,1,1-.68.68A.67.67,0,0,1,130.8,32.43ZM130.28,39V34.65h1V39Z"/><path d="M133.81,36.52l1.13-.17c.25,0,.32-.16.32-.31,0-.37-.25-.67-.83-.67a.85.85,0,0,0-.9.79l-.95-.21a1.71,1.71,0,0,1,1.84-1.43c1.36,0,1.87.76,1.87,1.64v2.17a4.24,4.24,0,0,0,.05.71h-1a2.63,2.63,0,0,1,0-.56,1.55,1.55,0,0,1-1.36.69,1.37,1.37,0,0,1-1.48-1.32A1.35,1.35,0,0,1,133.81,36.52Zm1.45.7V37l-1.14.17c-.33.06-.59.24-.59.6a.58.58,0,0,0,.64.56A1,1,0,0,0,135.26,37.22Z"/><path d="M138.68,39h-1V34.65h1v.59a1.45,1.45,0,0,1,1.3-.71,1.55,1.55,0,0,1,1.59,1.73V39h-1v-2.6c0-.54-.24-1-.9-1a.93.93,0,0,0-.91,1Z"/><path d="M145.23,36.81V32.65h1.07v4.1a1.31,1.31,0,1,0,2.62,0v-4.1H150v4.16a2.39,2.39,0,0,1-4.77,0Z"/><path d="M152.45,39h-1V34.65h1v.59a1.46,1.46,0,0,1,1.3-.71,1.55,1.55,0,0,1,1.59,1.73V39h-1.05v-2.6c0-.54-.24-1-.9-1a.93.93,0,0,0-.91,1Z"/><path d="M157.18,32.43a.68.68,0,1,1-.68.68A.68.68,0,0,1,157.18,32.43ZM156.66,39V34.65h1V39Z"/><path d="M161.38,39h-1l-1.79-4.39h1.16l1.16,3.14L162,34.65h1.1Z"/><path d="M167.7,37.79a2,2,0,0,1-2,1.38,2.33,2.33,0,0,1-.11-4.65,2,2,0,0,1,2.14,2.27,1.43,1.43,0,0,1,0,.34h-3.2a1.18,1.18,0,0,0,1.2,1.14,1.06,1.06,0,0,0,1.1-.76Zm-1-1.43a1,1,0,0,0-1.08-1,1,1,0,0,0-1.07,1Z"/><path d="M171.41,35.69l-.35,0c-.81,0-1.18.47-1.18,1.29V39h-1V34.65h1v.7a1.32,1.32,0,0,1,1.27-.75,1.47,1.47,0,0,1,.28,0Z"/><path d="M172.9,37.6a.81.81,0,0,0,.89.74c.43,0,.66-.23.66-.5s-.16-.41-.52-.49l-.64-.14a1.32,1.32,0,0,1-1.18-1.28,1.52,1.52,0,0,1,1.61-1.41,1.55,1.55,0,0,1,1.69,1.22l-.88.25a.76.76,0,0,0-.81-.65.57.57,0,0,0-.63.5.48.48,0,0,0,.44.46l.67.14a1.38,1.38,0,0,1,1.26,1.33,1.49,1.49,0,0,1-1.66,1.4A1.65,1.65,0,0,1,172,37.85Z"/><path d="M177.09,32.43a.68.68,0,1,1,0,1.36.68.68,0,0,1,0-1.36ZM176.58,39V34.65h1V39Z"/><path d="M180.38,34.65h.91v.93h-.91v2c0,.39.17.55.56.55a2.41,2.41,0,0,0,.36,0V39a1.6,1.6,0,0,1-.64.1,1.21,1.21,0,0,1-1.32-1.3V35.58h-.81v-.93h.23a.61.61,0,0,0,.67-.68v-.66h.95Z"/><path d="M182.74,40.81l1-2.3-1.87-3.86h1.18l1.26,2.78,1.18-2.78h1.1l-2.79,6.16Z"/><path d="M100.88,48.84a2.27,2.27,0,1,1-2.27-2.32A2.23,2.23,0,0,1,100.88,48.84Zm-1,0a1.23,1.23,0,1,0-2.45,0,1.26,1.26,0,0,0,1.23,1.39A1.24,1.24,0,0,0,99.83,48.84Z"/><path d="M103.28,46.08v.57h1v.91h-1V51h-1.06V47.56h-.76v-.91h.76v-.6a1.46,1.46,0,0,1,1.53-1.58,1.63,1.63,0,0,1,.55.09v.89a1.84,1.84,0,0,0-.38,0A.6.6,0,0,0,103.28,46.08Z"/><path d="M107.63,51V44.65h1.08V50h2.93v1Z"/><path d="M113.14,44.43a.68.68,0,1,1-.68.68A.67.67,0,0,1,113.14,44.43ZM112.63,51V46.65h1V51Z"/><path d="M116.4,46.08v.57h1v.91h-1V51h-1.06V47.56h-.76v-.91h.76v-.6a1.47,1.47,0,0,1,1.54-1.58,1.55,1.55,0,0,1,.54.09v.89a1.81,1.81,0,0,0-.37,0A.6.6,0,0,0,116.4,46.08Z"/><path d="M122.09,49.78a2,2,0,0,1-2,1.39,2.33,2.33,0,0,1-.11-4.65,2,2,0,0,1,2.14,2.27,1.43,1.43,0,0,1,0,.34h-3.2a1.18,1.18,0,0,0,1.2,1.14,1,1,0,0,0,1.09-.76Zm-1-1.42a1,1,0,0,0-1.08-1,1,1,0,0,0-1.07,1Z"/><path d="M128.86,46.45a1.17,1.17,0,0,0-1.25-1,1,1,0,0,0-1.1.92.83.83,0,0,0,.75.82l.92.19a1.89,1.89,0,0,1,1.73,1.84,2,2,0,0,1-2.26,1.93,2.27,2.27,0,0,1-2.47-2l1-.29a1.37,1.37,0,0,0,1.46,1.28c.76,0,1.16-.39,1.16-.88s-.31-.75-.86-.87l-.9-.19a1.8,1.8,0,0,1-1.62-1.79,2.26,2.26,0,0,1,4.41-.32Z"/><path d="M131.67,48.84a1.25,1.25,0,0,0,1.22,1.38,1.11,1.11,0,0,0,1.1-.81l.92.33a2,2,0,0,1-2,1.43,2.25,2.25,0,0,1-2.26-2.33,2.22,2.22,0,0,1,2.24-2.32,2,2,0,0,1,2,1.44l-.94.34a1,1,0,0,0-1.06-.82A1.23,1.23,0,0,0,131.67,48.84Z"/><path d="M136.44,44.43a.68.68,0,1,1-.68.68A.67.67,0,0,1,136.44,44.43ZM135.93,51V46.65h1V51Z"/><path d="M142.28,49.78a2,2,0,0,1-2,1.39,2.33,2.33,0,0,1-.11-4.65,2.05,2.05,0,0,1,2.15,2.27,1.43,1.43,0,0,1,0,.34H139.1a1.18,1.18,0,0,0,1.2,1.14,1.06,1.06,0,0,0,1.1-.76Zm-1-1.42a1,1,0,0,0-1.08-1,1.06,1.06,0,0,0-1.07,1Z"/><path d="M144.47,51h-1.05V46.65h1v.59a1.45,1.45,0,0,1,1.3-.71,1.54,1.54,0,0,1,1.58,1.73V51h-1v-2.6c0-.54-.24-1-.9-1a.92.92,0,0,0-.91,1Z"/><path d="M149.38,48.84a1.25,1.25,0,0,0,1.23,1.38,1.12,1.12,0,0,0,1.1-.81l.91.33a2,2,0,0,1-2,1.43,2.25,2.25,0,0,1-2.27-2.33,2.22,2.22,0,0,1,2.24-2.32,2,2,0,0,1,2,1.44l-.94.34a1,1,0,0,0-1.06-.82A1.23,1.23,0,0,0,149.38,48.84Z"/><path d="M157.47,49.78a2,2,0,0,1-2,1.39,2.33,2.33,0,0,1-.1-4.65,2,2,0,0,1,2.14,2.27,1.43,1.43,0,0,1,0,.34h-3.2a1.17,1.17,0,0,0,1.19,1.14,1.06,1.06,0,0,0,1.1-.76Zm-1-1.42a1,1,0,0,0-1.08-1,1.06,1.06,0,0,0-1.07,1Z"/><path d="M159.14,49.6a.81.81,0,0,0,.89.74c.43,0,.66-.23.66-.5s-.17-.42-.52-.49l-.64-.14a1.32,1.32,0,0,1-1.18-1.28A1.51,1.51,0,0,1,160,46.52a1.55,1.55,0,0,1,1.69,1.22l-.88.25a.76.76,0,0,0-.81-.65.57.57,0,0,0-.63.5.48.48,0,0,0,.44.46l.66.13a1.38,1.38,0,0,1,1.26,1.34,1.49,1.49,0,0,1-1.65,1.4,1.65,1.65,0,0,1-1.81-1.32Z"/><rect class="cls-2" width="202.68" height="83.62"/></svg>