<svg id="Layer_2" data-name="Layer 2" xmlns="http://www.w3.org/2000/svg" viewBox="0 0 1457 838" width="100%" height="100%"><defs><style>.cls-1,.cls-2,.cls-3{fill:none;stroke-miterlimit:10;}.cls-1{stroke:#010000;stroke-width:1.1px;}.cls-2{stroke:#999;}.cls-3{stroke:#000;}.cls-4{fill:#005293;}.cls-5{font-size:146.75px;font-family:EurostileRegular, Eurostile;}.cls-6,.cls-7{font-size:104.62px;font-family:Teko-Regular, Teko;}.cls-7{letter-spacing:0em;}.cls-8{font-size:50px;font-family:ArialRoundedMTBold, Arial Rounded MT Bold;}</style></defs><title>SSC16-Logo</title><polyline class="cls-1" points="0 422.77 728.5 422.77 1457 422.77"/><ellipse class="cls-2" cx="731" cy="422" rx="664" ry="377"/><line class="cls-3" x1="729" x2="729" y2="838"/><path class="cls-4" d="M841.89,226.75c-54.12,0-98,40.29-98,90s43.88,90,98,90,98-40.29,98-90S896,226.75,841.89,226.75Zm49,103.69q0,19.74-8.2,24.66T841.37,360q-29.62,0-37.66-8.67t-8-40.79q0-25.11,1.82-31.59t10.36-11.57q10-5.94,43.28-5.94,22.56,0,30.37,5.73t7.82,22.14l.09,2.62H876.19l-.09-3q0-11.67-4.62-15t-20.86-3.33q-28.51,0-34.82,3.9t-6.3,21.58q0,40.68,4.23,47.68t28.94,7q23.49,0,29.33-3t5.83-15.29l-.17-5.73h13.21Z"/><path class="cls-4" d="M426,120c-54.12,0-98,40.29-98,90s43.88,90,98,90,98-40.29,98-90S480.12,120,426,120Zm36.15,128q-8.59,5.24-38,5.24-25.49,0-33.91-5.28t-8.42-21.26l-.09-4.31H395v2.4q0,12.94,4.83,16.1t24.8,3.15q22.89,0,28.16-3.15t5.27-16.8q0-8.85-3.58-11.79t-15-3.5l-13.83-.56-13.13-.57q-30-1.69-30-25.47,0-16.48,8.72-22t34.82-5.52q26.43,0,34.47,5.13t8,22H455.37q0-11.69-4.75-14.83t-22.37-3.15q-20.91,0-27,3t-6,13.41q0,11.67,4.75,14.22T428.25,198q27.56,1,35,5.73T470.75,225Q470.75,242.8,462.15,248Z"/><path class="cls-4" d="M616,227c-54.12,0-98,40.29-98,90s43.88,90,98,90,98-40.29,98-90S670.12,227,616,227Zm36.15,128q-8.6,5.24-38,5.24-25.49,0-33.91-5.28t-8.42-21.26l-.09-4.31H585v2.4q0,12.94,4.83,16.1t24.8,3.15q22.89,0,28.16-3.15t5.27-16.8q0-8.85-3.58-11.79t-15-3.5l-13.83-.56-13.13-.57q-30-1.69-30-25.47,0-16.49,8.72-22t34.82-5.52q26.43,0,34.47,5.13t8,22H645.37q0-11.69-4.75-14.83t-22.37-3.15q-20.91,0-27,3t-6,13.41q0,11.67,4.75,14.22T618.25,305q27.56,1,35,5.73T660.75,332Q660.75,349.8,652.15,355Z"/><circle class="cls-4" cx="957" cy="174" r="14"/><circle class="cls-4" cx="284" cy="307" r="17"/><circle class="cls-4" cx="868" cy="649" r="15"/><circle class="cls-4" cx="631" cy="114" r="13"/><circle class="cls-4" cx="688" cy="186" r="13"/><circle class="cls-4" cx="432" cy="594" r="13"/><circle class="cls-4" cx="566" cy="661" r="13"/><circle class="cls-4" cx="814" cy="81" r="12"/><circle class="cls-4" cx="550" cy="596" r="12"/><circle class="cls-4" cx="728" cy="597" r="12"/><circle class="cls-4" cx="628" cy="605" r="12"/><circle class="cls-4" cx="641" cy="555" r="12"/><text class="cls-5" transform="translate(957 375.31) scale(0.86 1)">16</text><text class="cls-6" transform="translate(225.46 525.78) scale(1.05 1)">NORWAY - June 17</text><text class="cls-6" transform="translate(800.11 490.94) scale(0.61 0.58)">th</text><text class="cls-7" transform="translate(837.35 525.78) scale(1.05 1)"><tspan xml:space="preserve"> - 20</tspan></text><text class="cls-6" transform="translate(982.05 490.94) scale(0.61 0.58)">th</text><text class="cls-6" transform="translate(1019.29 525.78) scale(1.05 1)"><tspan xml:space="preserve"> 2019</tspan></text><text class="cls-8" transform="translate(135.82 551.17) rotate(52.24)">T</text><text class="cls-8" transform="translate(155.83 576.75) rotate(47.2)">h</text><text class="cls-8" transform="matrix(0.73, 0.69, -0.69, 0.73, 177.4, 599.92)">e</text><text class="cls-8" transform="matrix(0.76, 0.65, -0.65, 0.76, 199.83, 620.74)"> </text><text class="cls-8" transform="matrix(0.78, 0.62, -0.62, 0.78, 209.83, 629.58)">1</text><text class="cls-8" transform="matrix(0.82, 0.58, -0.58, 0.82, 234.02, 648.72)">6</text><text class="cls-8" transform="translate(268.09 652.23) rotate(33.31) scale(0.58)">t</text><text class="cls-8" transform="matrix(0.49, 0.31, -0.31, 0.49, 276.77, 657.99)">h</text><text class="cls-8" transform="translate(283.33 681.66) rotate(30.53)"> </text><text class="cls-8" transform="translate(294.67 688.55) rotate(28.41)">S</text><text class="cls-8" transform="translate(324.93 704.83) rotate(25.62)">c</text><text class="cls-8" transform="translate(352.55 718.05) rotate(23.11)">a</text><text class="cls-8" transform="translate(380.68 730.03) rotate(20.68)">n</text><text class="cls-8" transform="translate(409.74 740.99) rotate(18.3)">d</text><text class="cls-8" transform="translate(440.02 750.86) rotate(16.63)">i</text><text class="cls-8" transform="matrix(0.97, 0.26, -0.26, 0.97, 453.48, 754.99)">n</text><text class="cls-8" transform="matrix(0.97, 0.22, -0.22, 0.97, 483.19, 762.96)">a</text><text class="cls-8" transform="translate(510.65 769.3) rotate(11.25)">v</text><text class="cls-8" transform="matrix(0.98, 0.17, -0.17, 0.98, 536.99, 774.46)">i</text><text class="cls-8" transform="translate(550.08 776.86) rotate(8.69)">a</text><text class="cls-8" transform="matrix(0.99, 0.12, -0.12, 0.99, 579.16, 781.31)">n</text><text class="cls-8" transform="translate(608.93 784.85) rotate(5.76)"> </text><text class="cls-8" transform="translate(621.12 786.2) rotate(4.53)">S</text><text class="cls-8" transform="matrix(1, 0.05, -0.05, 1, 654.09, 788.77)">y</text><text class="cls-8" transform="translate(680.85 790.28) rotate(1.19)">m</text><text class="cls-8" transform="translate(725.4 791.1) rotate(-0.65)">p</text><text class="cls-8" transform="translate(756.39 790.75) rotate(-2.2)">o</text><text class="cls-8" transform="translate(786.28 789.59) rotate(-3.7)">s</text><text class="cls-8" transform="matrix(1, -0.08, 0.08, 1, 813.11, 787.79)">i</text><text class="cls-8" transform="matrix(0.99, -0.1, 0.1, 0.99, 826.4, 786.77)">u</text><text class="cls-8" transform="matrix(0.99, -0.14, 0.14, 0.99, 856.09, 783.79)">m</text><text class="cls-8" transform="translate(899.55 777.35) rotate(-9.82)"> </text><text class="cls-8" transform="translate(911.66 775.36) rotate(-11.13)">o</text><text class="cls-8" transform="translate(940.97 769.61) rotate(-13.02)">n</text><text class="cls-8" transform="translate(970.13 762.76) rotate(-14.41)"> </text><text class="cls-8" transform="matrix(0.96, -0.28, 0.28, 0.96, 982.86, 759.67)">C</text><text class="cls-8" transform="translate(1019.22 749.08) rotate(-18.5)">h</text><text class="cls-8" transform="translate(1048.61 739.23) rotate(-20.7)">e</text><text class="cls-8" transform="translate(1077.41 728.52) rotate(-23.53)">m</text><text class="cls-8" transform="matrix(0.89, -0.45, 0.45, 0.89, 1118.88, 710.24)">o</text><text class="cls-8" transform="matrix(0.87, -0.49, 0.49, 0.87, 1147, 696.4)">m</text><text class="cls-8" transform="translate(1186.39 673.76) rotate(-32.85)">e</text><text class="cls-8" transform="matrix(0.82, -0.57, 0.57, 0.82, 1211.91, 657.14)">t</text><text class="cls-8" transform="matrix(0.8, -0.6, 0.6, 0.8, 1226.99, 646.59)">r</text><text class="cls-8" transform="matrix(0.78, -0.63, 0.63, 0.78, 1244.94, 633)">i</text><text class="cls-8" transform="matrix(0.75, -0.66, 0.66, 0.75, 1256.26, 624.11)">c</text><text class="cls-8" transform="matrix(0.71, -0.7, 0.7, 0.71, 1279.59, 603.71)">s</text></svg>